<?xml version="1.0" encoding="UTF-8"?>
<svg version="1.1" xmlns="http://www.w3.org/2000/svg" width="500" height="500">
<path d="M0 0 C165 0 330 0 500 0 C500 165 500 330 500 500 C335 500 170 500 0 500 C0 335 0 170 0 0 Z " fill="#FEFEFE" transform="translate(0,0)"/>
<path d="M0 0 C5.85737659 3.61701553 10.36358376 4.417966 17.18763733 4.34031677 C18.1484874 4.35069473 19.10933746 4.36107269 20.0993042 4.37176514 C23.15385647 4.40123494 26.20718911 4.39812247 29.26185608 4.39109802 C33.25809511 4.40305217 37.25404674 4.429086 41.25013733 4.46531677 C42.71954018 4.47808151 42.71954018 4.47808151 44.21862793 4.49110413 C74.23287534 4.91000521 102.97508298 11.32945381 125.94935608 31.70359802 C126.5397467 32.20891052 127.13013733 32.71422302 127.73841858 33.23484802 C129.60183757 35.49499493 129.34628087 37.8461739 129.25404358 40.66453552 C128.94935608 42.70359802 128.94935608 42.70359802 127.44935608 45.64109802 C125.48437437 49.65293568 125.30304588 53.2969376 125.94935608 57.70359802 C126.60935608 58.69359802 127.26935608 59.68359802 127.94935608 60.70359802 C127.88685608 63.20359802 127.88685608 63.20359802 126.94935608 65.70359802 C120.80190643 70.89050866 111.50921926 70.99039763 103.82044983 71.19578552 C102.10883915 71.26161869 100.39725111 71.32804267 98.6856842 71.39500427 C96.03096265 71.48982453 93.37634696 71.57890794 90.72108459 71.6572113 C88.12833657 71.73715018 85.53725602 71.84002949 82.94544983 71.94578552 C82.16189621 71.96261383 81.37834259 71.97944214 80.57104492 71.9967804 C74.3059854 72.27438752 72.09857828 73.62898692 65.94935608 76.70359802 C76.50935608 77.36359802 87.06935608 78.02359802 97.94935608 78.70359802 C97.94935608 79.03359802 97.94935608 79.36359802 97.94935608 79.70359802 C90.17657186 80.54674022 82.51090873 80.84659851 74.69587708 80.83058167 C73.51030913 80.83214166 72.32474118 80.83370165 71.10324693 80.83530891 C67.84323145 80.83858606 64.5832538 80.83743547 61.32323933 80.83432269 C57.79466879 80.83204691 54.26610312 80.8355592 50.73753357 80.83830261 C43.83379399 80.84273773 36.93006531 80.84179341 30.02632532 80.83888997 C24.40559811 80.83662486 18.78487395 80.83632822 13.16414642 80.83741379 C12.36187196 80.83756702 11.55959749 80.83772025 10.73301168 80.83787813 C9.10267637 80.83819789 7.47234106 80.8385221 5.84200576 80.83885072 C-9.43267123 80.84169947 -24.7073422 80.83842912 -39.9820182 80.83305036 C-53.04265688 80.82859313 -66.10328666 80.82935048 -79.16392517 80.83396912 C-94.36807137 80.83934333 -109.5722123 80.84141408 -124.77635932 80.83835685 C-126.40412124 80.83803835 -128.03188316 80.83772398 -129.65964508 80.83741379 C-130.46028403 80.83725951 -131.26092299 80.83710524 -132.08582373 80.83694629 C-137.6831708 80.83608887 -143.28051448 80.83752738 -148.87786102 80.83989334 C-155.72402374 80.84272374 -162.57017501 80.8418862 -169.41633645 80.8366126 C-172.89867684 80.83401711 -176.3809983 80.83289814 -179.86333847 80.83626175 C-195.95371417 80.84802962 -211.98240847 80.57898428 -228.05064392 79.70359802 C-228.05064392 79.37359802 -228.05064392 79.04359802 -228.05064392 78.70359802 C-217.82064392 78.04359802 -207.59064392 77.38359802 -197.05064392 76.70359802 C-199.69064392 74.72359802 -202.33064392 72.74359802 -205.05064392 70.70359802 C-206.29007751 69.14512146 -206.29007751 69.14512146 -207.55455017 67.55516052 C-210.67848696 63.98634384 -213.63563761 62.74362365 -217.98814392 61.07859802 C-223.11320154 59.0496303 -227.55819227 56.9235399 -232.05064392 53.70359802 C-231.73814392 51.76609802 -231.73814392 51.76609802 -231.05064392 49.70359802 C-229.56564392 49.20859802 -229.56564392 49.20859802 -228.05064392 48.70359802 C-229.31376639 44.75570775 -229.31376639 44.75570775 -230.85142517 40.91062927 C-233.32931306 35.21501018 -234.08737285 29.86017287 -233.05064392 23.70359802 C-231.64321533 20.18900234 -230.05322677 16.8875565 -228.26548767 13.55125427 C-226.84340037 10.87784078 -226.84340037 10.87784078 -227.32017517 8.51609802 C-227.56122986 7.91797302 -227.80228455 7.31984802 -228.05064392 6.70359802 C-228.80064392 3.64109802 -228.80064392 3.64109802 -229.05064392 0.70359802 C-227.33219427 -1.84020021 -226.13480175 -2.27640185 -223.12486267 -2.99171448 C-222.00724548 -3.13351135 -220.8896283 -3.27530823 -219.73814392 -3.42140198 C-218.0733197 -3.64183167 -218.0733197 -3.64183167 -216.37486267 -3.86671448 C-214.72937439 -4.07940979 -214.72937439 -4.07940979 -213.05064392 -4.29640198 C-212.12211609 -4.46575256 -211.19358826 -4.63510315 -210.23692322 -4.80958557 C-207.03532613 -5.29874231 -203.98238436 -5.45097765 -200.74595642 -5.51515198 C-184.35813795 -6.05923191 -171.18913446 -8.70677708 -155.98033142 -15.13136292 C-148.13078419 -18.2528662 -139.90592828 -20.37352865 -131.75767517 -22.56495667 C-130.05880568 -23.02399463 -128.36290136 -23.49431147 -126.67173767 -23.98097229 C-85.06421813 -35.92387142 -35.80059297 -22.6328711 0 0 Z " fill="#0C0B2D" transform="translate(302.05064392089844,182.29640197753906)"/>
<path d="M0 0 C1.55611206 0.21840169 3.11995107 0.3905725 4.6875 0.5 C8.33817173 0.81197644 11.8929782 1.2939235 15.5 1.9375 C30.02121558 4.42219266 44.48032398 5.36499805 59.1875 5.625 C60.11134491 5.64467834 61.03518982 5.66435669 61.98703003 5.68463135 C75.72939683 5.97512529 89.46619296 6.01627319 103.21070671 5.96310806 C105.84404623 5.95309416 108.47738667 5.94473066 111.11073303 5.93673706 C121.69272866 5.90396231 121.69272866 5.90396231 132.27450562 5.83135986 C169.11116258 5.50600749 169.11116258 5.50600749 186 9 C186.73973557 9.14995926 187.47947113 9.29991852 188.24162292 9.454422 C204.60059368 12.82616816 219.14148654 19.76099103 233 29 C223.78860541 19.84581905 212.33759802 13.82717326 200 10 C208.84405388 7.05198204 223.0003824 15.15072203 231.17382812 19.08105469 C235.71255664 21.36498171 239.89740911 24.01161354 244 27 C244.89332031 27.639375 245.78664063 28.27875 246.70703125 28.9375 C252.81738601 33.74318608 252.81738601 33.74318608 253.33203125 37.28515625 C253.0625 39.5 253.0625 39.5 252 43 C246.75448927 45.56987723 241.32926618 45.62603948 235.59375 45.94726562 C231.36434105 46.30324088 229.45705759 46.63314318 226.05078125 49.3671875 C223.90918743 52.11658605 222.40648261 54.81690777 221 58 C220.01 58 219.02 58 218 58 C218.22889596 52.39204896 219.6158498 49.65520215 223.33203125 45.48046875 C226.73180678 42.46286939 229.77227184 41.72850485 234.25 41.375 C235.14203125 41.30023438 236.0340625 41.22546875 236.953125 41.1484375 C237.62859375 41.09945312 238.3040625 41.05046875 239 41 C236.9377952 40.945652 234.87517184 40.90705039 232.8125 40.875 C231.08966797 40.84019531 231.08966797 40.84019531 229.33203125 40.8046875 C226.03112327 40.99817566 223.91603754 41.48283761 221 43 C216.87364091 47.69946452 216.26739134 51.98369477 216 58 C219.53060101 60.35373401 222.58595756 60.65778415 226.6875 61.125 C227.7403418 61.25455078 227.7403418 61.25455078 228.81445312 61.38671875 C230.54211145 61.59826875 232.2709566 61.800086 234 62 C234.5625 63.9375 234.5625 63.9375 235 66 C231.07954683 69.92045317 218.33159193 68.08714114 212.94921875 68.09765625 C210.19523075 68.09482879 207.4414308 68.07957315 204.6875 68.0625 C203.2532568 68.05746757 201.81901185 68.05290779 200.38476562 68.04882812 C196.92314002 68.03797759 193.46158178 68.0208124 190 68 C190.16081055 66.9382959 190.32162109 65.8765918 190.48730469 64.78271484 C191.08648754 60.36188669 191.22154452 56.07828335 191.25 51.625 C191.270625 50.82578125 191.29125 50.0265625 191.3125 49.203125 C191.37799352 39.08437578 188.37633874 32.45844974 181.40234375 25.16796875 C178.17182362 22.25262131 175.08333219 20.44512991 171 19 C169.845 18.5875 168.69 18.175 167.5 17.75 C158.02777995 15.72023856 149.81160046 17.70034131 141.40625 22.47265625 C134.33767845 27.45599919 131.00674031 33.25972026 129.22265625 41.66015625 C128.14838833 48.67449383 127.77337113 55.00821546 129 62 C128.01 62.33 127.02 62.66 126 63 C127.65 63.66 129.3 64.32 131 65 C131 65.33 131 65.66 131 66 C97.77995474 66.24587411 64.69775521 65.93490111 31.5014801 64.57131958 C22.89961342 64.22397344 14.29579826 63.87920021 5.6875 63.75 C4.61181763 63.71797485 4.61181763 63.71797485 3.5144043 63.68530273 C-0.93955812 63.65543952 -3.31870993 64.60507976 -7 67 C-9.31176758 67.34057617 -9.31176758 67.34057617 -11.64453125 67.29296875 C-12.48564453 67.28330078 -13.32675781 67.27363281 -14.19335938 67.26367188 C-15.05767578 67.23853516 -15.92199219 67.21339844 -16.8125 67.1875 C-18.13797852 67.16719727 -18.13797852 67.16719727 -19.49023438 67.14648438 C-21.66042023 67.11129217 -23.83029033 67.05748985 -26 67 C-25.87431641 65.89205078 -25.87431641 65.89205078 -25.74609375 64.76171875 C-24.53485074 52.69528525 -24.55347169 41.43000811 -31.984375 31.29296875 C-37.82839143 24.41113561 -43.97869068 19.6405405 -53.2265625 18.796875 C-62.00024566 18.62540236 -69.00924731 19.96791224 -75.875 25.6875 C-83.22484738 32.82994428 -84.7349806 40.0130047 -86 50 C-91.99203532 45.44121808 -96.72718437 40.57833681 -98.78515625 33.17578125 C-99.05208176 29.23013684 -98.07020853 26.82806451 -96.5625 23.1875 C-93.3535545 14.7283631 -93.00052565 9.48044153 -96 1 C-65.79932288 -7.03451976 -30.158993 -9.15540859 0 0 Z " fill="#181738" transform="translate(173,183)"/>
<path d="M0 0 C9.80720517 -0.07020953 19.61434836 -0.12316503 29.42175579 -0.15543652 C33.978121 -0.17094279 38.53431148 -0.19189752 43.09057617 -0.22631836 C82.29197567 -0.51459978 82.29197567 -0.51459978 99 3 C100.10443703 3.22480293 100.10443703 3.22480293 101.23118591 3.45414734 C117.59526889 6.82540739 132.137115 13.75807667 146 23 C136.78860541 13.84581905 125.33759802 7.82717326 113 4 C121.84405388 1.05198204 136.0003824 9.15072203 144.17382812 13.08105469 C148.71255664 15.36498171 152.89740911 18.01161354 157 21 C157.89332031 21.639375 158.78664063 22.27875 159.70703125 22.9375 C165.81738601 27.74318608 165.81738601 27.74318608 166.33203125 31.28515625 C166.0625 33.5 166.0625 33.5 165 37 C159.75448927 39.56987723 154.32926618 39.62603948 148.59375 39.94726562 C144.36434105 40.30324088 142.45705759 40.63314318 139.05078125 43.3671875 C136.90918743 46.11658605 135.40648261 48.81690777 134 52 C133.01 52 132.02 52 131 52 C131.22889596 46.39204896 132.6158498 43.65520215 136.33203125 39.48046875 C139.73180678 36.46286939 142.77227184 35.72850485 147.25 35.375 C148.14203125 35.30023438 149.0340625 35.22546875 149.953125 35.1484375 C150.62859375 35.09945312 151.3040625 35.05046875 152 35 C149.9377952 34.945652 147.87517184 34.90705039 145.8125 34.875 C144.08966797 34.84019531 144.08966797 34.84019531 142.33203125 34.8046875 C139.03112327 34.99817566 136.91603754 35.48283761 134 37 C129.87364091 41.69946452 129.26739134 45.98369477 129 52 C132.53060101 54.35373401 135.58595756 54.65778415 139.6875 55.125 C140.38939453 55.21136719 141.09128906 55.29773438 141.81445312 55.38671875 C143.54211145 55.59826875 145.2709566 55.800086 147 56 C147.5625 57.9375 147.5625 57.9375 148 60 C144.07954683 63.92045317 131.33159193 62.08714114 125.94921875 62.09765625 C123.19523075 62.09482879 120.4414308 62.07957315 117.6875 62.0625 C116.2532568 62.05746757 114.81901185 62.05290779 113.38476562 62.04882812 C109.92314002 62.03797759 106.46158178 62.0208124 103 62 C103.24121582 60.40744385 103.24121582 60.40744385 103.48730469 58.78271484 C104.08648754 54.36188669 104.22154452 50.07828335 104.25 45.625 C104.270625 44.82578125 104.29125 44.0265625 104.3125 43.203125 C104.37799352 33.08437578 101.37633874 26.45844974 94.40234375 19.16796875 C91.17182362 16.25262131 88.08333219 14.44512991 84 13 C82.845 12.5875 81.69 12.175 80.5 11.75 C71.02777995 9.72023856 62.81160046 11.70034131 54.40625 16.47265625 C47.34599853 21.45013354 43.92432146 27.32487937 42.2578125 35.75390625 C41.75506183 39.16641254 41.33142624 42.56701778 41 46 C38.54101345 46.08076963 36.08466258 46.14037143 33.625 46.1875 C32.92632812 46.21263672 32.22765625 46.23777344 31.5078125 46.26367188 C29.4765625 46.29296875 29.4765625 46.29296875 26 46 C23.91400582 42.87100872 23.22245398 40.48331609 22.25 36.875 C19.78489776 28.65493787 16.25233639 21.89532706 9 17 C7.948125 16.443125 6.89625 15.88625 5.8125 15.3125 C1.84300343 12.04869171 1.71517866 8.89423467 1 4 C0.67513859 2.66457724 0.34301795 1.33087474 0 0 Z " fill="#F9F9F9" transform="translate(260,189)"/>
<path d="M0 0 C1.55611206 0.21840169 3.11995107 0.3905725 4.6875 0.5 C8.33817173 0.81197644 11.8929782 1.2939235 15.5 1.9375 C31.52439473 4.66318214 47.39820215 5.37487595 63.625 5.625 C65.71095156 5.66330412 67.79688942 5.70236236 69.8828125 5.7421875 C74.92175989 5.83678755 79.96078036 5.92129219 85 6 C87.34135403 10.43162451 88.49906412 13.99064117 89 19 C85.83316436 18.6891977 82.66656534 18.37604334 79.5 18.0625 C78.613125 17.97548828 77.72625 17.88847656 76.8125 17.79882812 C75.9359375 17.71181641 75.059375 17.62480469 74.15625 17.53515625 C73.36025391 17.456604 72.56425781 17.37805176 71.74414062 17.29711914 C69.57911928 17.06270357 67.41933007 16.77997207 65.26245117 16.47973633 C60.72069952 15.90746883 56.21753764 15.8298816 51.64453125 15.7890625 C49.87043303 15.76102275 48.09634458 15.73235854 46.32226562 15.703125 C43.55737286 15.66175135 40.79266888 15.62481224 38.02758789 15.59863281 C35.33703288 15.57102517 32.64727739 15.52519684 29.95703125 15.4765625 C29.13298294 15.47330963 28.30893463 15.47005676 27.45991516 15.46670532 C22.74527733 15.36587679 19.94874201 14.81707616 16 12 C11.82783371 11.71727078 8.48839716 12.67440189 5 15 C3.01049805 15.43896484 3.01049805 15.43896484 0.76171875 15.7109375 C-0.05876953 15.82179687 -0.87925781 15.93265625 -1.72460938 16.046875 C-3.43737288 16.26404049 -5.15092627 16.4750723 -6.86523438 16.6796875 C-12.25400894 17.42122333 -15.84852393 18.39319759 -20 22 C-21.37183744 28.51622784 -19.01683572 32.90752992 -15.70703125 38.51171875 C-12.00346292 43.91028402 -7.25605527 47.02337693 -1 49 C2.36367411 49.54734489 5.71990812 49.73963218 9.12109375 49.9140625 C10.57507317 50.00361206 10.57507317 50.00361206 12.0584259 50.0949707 C15.18419 50.28413551 18.31064492 50.45491526 21.4375 50.625 C23.5811091 50.7508671 25.7246641 50.87765886 27.86816406 51.00537109 C39.53355285 51.68991964 51.20445432 52.33496582 62.88452148 52.70947266 C78.67094158 53.22364719 78.67094158 53.22364719 84 55 C84 55.66 84 56.32 84 57 C81.24488088 57.91837304 79.61733553 58.12636281 76.77905273 58.12939453 C75.93064316 58.13254669 75.08223358 58.13569885 74.20811462 58.13894653 C73.29252274 58.1369223 72.37693085 58.13489807 71.43359375 58.1328125 C70.01059715 58.13424759 70.01059715 58.13424759 68.55885315 58.13571167 C66.5472914 58.13639264 64.53572746 58.13454412 62.52416992 58.13037109 C59.47374394 58.12506307 56.42346801 58.13029733 53.37304688 58.13671875 C51.41406218 58.13605714 49.45507758 58.13477428 47.49609375 58.1328125 C46.59467148 58.13483673 45.69324921 58.13686096 44.76451111 58.13894653 C39.64522453 58.12040859 34.66174356 57.79372255 29.57505798 57.23580933 C24.86193905 56.8042084 20.14010866 56.78227567 15.41015625 56.71875 C13.22330718 56.68099603 11.03645823 56.64323543 8.84960938 56.60546875 C5.43711115 56.55164308 2.02459203 56.499426 -1.38793945 56.44775391 C-4.70531728 56.39610866 -8.02256539 56.33888176 -11.33984375 56.28125 C-12.36480453 56.26767456 -13.38976532 56.25409912 -14.44578552 56.2401123 C-15.86855553 56.21503601 -15.86855553 56.21503601 -17.32006836 56.18945312 C-18.15372421 56.17692505 -18.98738007 56.16439697 -19.84629822 56.15148926 C-22 56 -22 56 -25 55 C-25.02578125 54.32195312 -25.0515625 53.64390625 -25.078125 52.9453125 C-25.82671506 40.66163016 -29.7566921 32.30228148 -39 24 C-46.66548213 18.8941692 -54.61012375 18.02444637 -63.55859375 19.390625 C-71.21086271 21.25295567 -76.73743942 25.55441462 -81.37890625 31.87890625 C-84.53497214 37.45734006 -85.20502579 43.72388784 -86 50 C-91.99203532 45.44121808 -96.72718437 40.57833681 -98.78515625 33.17578125 C-99.05208176 29.23013684 -98.07020853 26.82806451 -96.5625 23.1875 C-93.3535545 14.7283631 -93.00052565 9.48044153 -96 1 C-65.79932288 -7.03451976 -30.158993 -9.15540859 0 0 Z " fill="#F7F7F8" transform="translate(173,183)"/>
<path d="M0 0 C85.14 0 170.28 0 258 0 C258 17.82 258 35.64 258 54 C255.03 54 252.06 54 249 54 C249 39.15 249 24.3 249 9 C169.8 9 90.6 9 9 9 C9 18.9 9 28.8 9 39 C6.03 39 3.06 39 0 39 C0 26.13 0 13.26 0 0 Z " fill="#C67B17" transform="translate(121,128)"/>
<path d="M0 0 C22.1711732 -0.28320842 47.59625994 12.64660527 66.07527161 24.30982971 C71.92258313 27.92042911 76.42534794 28.71424145 83.23828125 28.63671875 C84.19913132 28.64709671 85.15998138 28.65747467 86.14994812 28.66816711 C89.20450039 28.69763692 92.25783303 28.69452445 95.3125 28.6875 C99.30874017 28.69945415 103.30468553 28.72603676 107.30078125 28.76171875 C108.76114304 28.77258011 108.76114304 28.77258011 110.25100708 28.78366089 C119.90266226 28.9091715 129.42332291 29.84689125 139 31 C138.67 31.99 138.34 32.98 138 34 C139.03833984 34.38478516 139.03833984 34.38478516 140.09765625 34.77734375 C151.94628707 39.41376451 163.53813915 45.29981805 172 55 C168.35102986 55 167.69840808 54.20363557 164.875 52 C141.73042191 35.36694315 112.8261788 31.78852311 85.10546875 31.9375 C83.44799962 31.94239275 81.79052869 31.94670817 80.13305664 31.95048523 C76.62941412 31.9589504 73.12579158 31.96982396 69.62216187 31.98251343 C60.52938518 32.01384827 51.43657371 32.01791051 42.34375 32.01953125 C41.45005392 32.01971567 40.55635784 32.01990009 39.63558006 32.0200901 C-34.40181902 32.0236125 -34.40181902 32.0236125 -63 25 C-63 27.64 -63 30.28 -63 33 C-63.33 33 -63.66 33 -64 33 C-64 30.03 -64 27.06 -64 24 C-66.97 23.67 -69.94 23.34 -73 23 C-73 22.34 -73 21.68 -73 21 C-70.03 21 -67.06 21 -64 21 C-64 18.03 -64 15.06 -64 12 C-64.80824219 12.2165625 -65.61648437 12.433125 -66.44921875 12.65625 C-67.51785156 12.9346875 -68.58648437 13.213125 -69.6875 13.5 C-70.74324219 13.7784375 -71.79898438 14.056875 -72.88671875 14.34375 C-75.71142672 14.9391715 -78.12836708 15.12786492 -81 15 C-65.89657046 6.33355346 -36.24986946 2.59459023 -19.51953125 6.89453125 C-16.483871 8.04492721 -13.80419484 9.36936688 -11 11 C-10.07058594 11.53109375 -9.14117187 12.0621875 -8.18359375 12.609375 C-2.50761746 16.05127439 2.68903888 19.98602873 7.80859375 24.203125 C8.53175781 24.79609375 9.25492187 25.3890625 10 26 C10.63035156 26.57234375 11.26070313 27.1446875 11.91015625 27.734375 C14.69251523 29.4193924 16.80908915 29.2175621 20 29 C13.94745681 23.22637585 7.71157316 18.17736627 0.82373047 13.45166016 C-2.51290946 11.14619049 -5.0912366 8.9087634 -8 6 C0.415 5.01 0.415 5.01 9 4 C4.545 3.01 4.545 3.01 0 2 C0 1.34 0 0.68 0 0 Z " fill="#08072A" transform="translate(236,158)"/>
<path d="M0 0 C3.3 0 6.6 0 10 0 C10.33 4.29 10.66 8.58 11 13 C17.64907745 14.91065444 24.29923156 16.81053043 30.96875 18.6484375 C41.22701937 21.48146494 51.41072537 24.35947412 61.4765625 27.8203125 C67.55913492 29.85682788 73.72527804 31.60774926 79.88671875 33.38818359 C82.55122138 34.15958419 85.2129101 34.94028892 87.8737793 35.72412109 C89.21571853 36.11866465 90.55834081 36.51089192 91.90161133 36.90087891 C96.5499817 38.25583953 101.17374812 39.67747873 105.79296875 41.12890625 C106.99131348 41.49910889 108.1896582 41.86931152 109.42431641 42.25073242 C111.80683299 42.98697513 114.18562862 43.73539524 116.56005859 44.49731445 C122.66526822 46.36731854 127.71031225 47.71213068 134 46 C135.01545898 45.73098877 136.03091797 45.46197754 137.07714844 45.18481445 C140.73358336 44.17064132 144.36671348 43.09409056 148 42 C149.20865723 41.6405127 150.41731445 41.28102539 151.66259766 40.91064453 C155.38139834 39.80168481 159.09719595 38.68311422 162.8125 37.5625 C165.46855736 36.76368147 168.1248999 35.96581322 170.78125 35.16796875 C172.03679687 34.79075684 173.29234375 34.41354492 174.5859375 34.02490234 C183.27043303 31.4178148 191.95659185 28.83204833 200.69921875 26.42578125 C212.93661654 23.0523011 225.06470053 19.47958485 237.1171875 15.48901367 C238.1071875 15.16392822 239.0971875 14.83884277 240.1171875 14.50390625 C240.98972168 14.21330322 241.86225586 13.9227002 242.76123047 13.62329102 C245 13 245 13 248 13 C248 8.71 248 4.42 248 0 C251.3 0 254.6 0 258 0 C258.08083562 3.10468645 258.14041718 6.20727569 258.1875 9.3125 C258.22520508 10.63411133 258.22520508 10.63411133 258.26367188 11.98242188 C258.27333984 12.82998047 258.28300781 13.67753906 258.29296875 14.55078125 C258.3086792 15.33106689 258.32438965 16.11135254 258.34057617 16.9152832 C258 19 258 19 256.87988281 20.64990234 C254.27121234 22.52340205 251.72050086 23.18634166 248.62890625 24.05078125 C247.99921432 24.23003143 247.3695224 24.40928162 246.7207489 24.59396362 C244.67039385 25.1757033 242.61653927 25.74392131 240.5625 26.3125 C239.14323407 26.71346649 237.72428966 27.1155727 236.30566406 27.51879883 C233.49072125 28.31844765 230.67475573 29.11430796 227.85791016 29.90722656 C222.97413058 31.28587046 218.10871889 32.72313336 213.25 34.1875 C212.06905762 34.54207275 212.06905762 34.54207275 210.86425781 34.90380859 C206.27387203 36.2897483 201.70236155 37.72797166 197.13647461 39.19238281 C187.98661217 42.12602922 178.77802895 44.76153861 169.51391602 47.31079102 C161.27117577 49.59765849 153.11943187 52.11559763 144.9909668 54.77905273 C144.1431665 55.05563721 143.29536621 55.33222168 142.421875 55.6171875 C141.68549805 55.86065918 140.94912109 56.10413086 140.19042969 56.35498047 C131.44425943 58.93048 124.01209879 58.44171523 115.5 55.4375 C113.83074783 54.87885047 112.16009486 54.32437428 110.48828125 53.7734375 C109.16111084 53.33596191 109.16111084 53.33596191 107.80712891 52.88964844 C102.80744757 51.30512602 97.74579299 49.94582166 92.6875 48.5625 C84.7327382 46.37264493 76.84653703 44.05057056 69 41.5 C60.12846843 38.61834465 51.19451159 36.04574109 42.2043457 33.5612793 C32.42345828 30.85534312 22.69531823 27.99774782 13 25 C12.34032227 24.79745605 11.68064453 24.59491211 11.00097656 24.38623047 C3.52662352 22.07515895 3.52662352 22.07515895 1 21 C-0.17426264 18.65147472 -0.11508173 17.26225935 -0.09765625 14.6484375 C-0.09443359 13.79765625 -0.09121094 12.946875 -0.08789062 12.0703125 C-0.07951172 11.18085938 -0.07113281 10.29140625 -0.0625 9.375 C-0.05798828 8.4778125 -0.05347656 7.580625 -0.04882812 6.65625 C-0.03702611 4.43747169 -0.01909039 2.21872757 0 0 Z " fill="#C77F1E" transform="translate(121,314)"/>
<path d="M0 0 C1.04297745 -0.00807175 2.0859549 -0.01614349 3.16053772 -0.02445984 C5.37190108 -0.03825983 7.58328537 -0.04900015 9.79467773 -0.05688477 C12.00795953 -0.06828433 14.22121657 -0.08853923 16.43432617 -0.1184082 C28.54335982 -0.28136716 40.31658599 0.05865325 52.2890625 2.0078125 C53.7417881 2.24137703 53.7417881 2.24137703 55.22386169 2.47966003 C64.36316666 4.13285651 73.86765416 7.09243719 79.4765625 15.0078125 C81.22176995 17.89622204 82.22265625 19.82446447 82.22265625 23.23828125 C74.47265625 22.36328125 74.47265625 22.36328125 72.22265625 21.23828125 C69.67159596 21.08183953 67.14346962 20.98006736 64.58984375 20.921875 C63.83800812 20.9010939 63.08617249 20.88031281 62.31155396 20.85890198 C59.9070154 20.7934542 57.50236658 20.73454387 55.09765625 20.67578125 C53.46873854 20.63259148 51.83983203 20.58897704 50.2109375 20.54492188 C46.2149571 20.43777774 42.21886566 20.33649692 38.22265625 20.23828125 C40.16205078 20.52832031 40.16205078 20.52832031 42.140625 20.82421875 C45.73076307 21.36133963 49.32053928 21.90081471 52.91015625 22.44140625 C56.07576072 22.91782747 59.24202263 23.38837061 62.41015625 23.84765625 C63.56515625 24.0178125 64.72015625 24.18796875 65.91015625 24.36328125 C67.43189453 24.58371094 67.43189453 24.58371094 68.984375 24.80859375 C71.22265625 25.23828125 71.22265625 25.23828125 72.22265625 26.23828125 C72.26346408 28.23786489 72.26519981 30.23873379 72.22265625 32.23828125 C66.13386362 32.27917519 60.04563591 32.31552766 53.95678711 32.27783203 C52.41129563 32.2685459 50.86580409 32.2592688 49.3203125 32.25 C48.52086716 32.24486389 47.72142181 32.23972778 46.89775085 32.23443604 C41.55219595 32.21230083 36.21722867 32.29842903 30.87365723 32.44120789 C27.10306699 32.52956212 23.33321363 32.55910188 19.56170654 32.57907104 C17.72321642 32.6017233 15.88485105 32.64902167 14.04766846 32.72195435 C-0.12477474 33.26364931 -0.12477474 33.26364931 -4.53637695 29.89517212 C-8.09017869 26.14970451 -10.51249352 21.84363194 -12.77734375 17.23828125 C-13.35154053 16.13983887 -13.9257373 15.04139648 -14.51733398 13.90966797 C-16.74977466 9.50302763 -18.04410577 6.22673101 -17.77734375 1.23828125 C-11.83433454 0.21826231 -6.02317828 0.04529588 0 0 Z " fill="#FAFAFB" transform="translate(191.77734375,200.76171875)"/>
<path d="M0 0 C5.57546669 3.12226135 10.55559745 8.50456323 12.875 14.5 C13.7385639 22.09132917 13.71017516 29.29344475 8.875 35.5 C4.58166893 40.04767532 0.34298002 43.14059965 -6.02734375 43.80078125 C-13.47671787 43.82954331 -17.9018035 43.18599708 -23.75 38.3125 C-29.27141064 31.7739874 -30.88243233 26.32567284 -30.5625 17.6875 C-29.73828376 11.68249594 -27.57254759 7.52747813 -22.89453125 3.65234375 C-15.71740688 -1.30022331 -8.37206944 -3.70459993 0 0 Z " fill="#100F32" transform="translate(342.125,209.5)"/>
<path d="M0 0 C6.46825692 2.43951474 10.06610869 7.03009548 13.75 12.6875 C16.15733703 19.06694312 15.81418959 25.85532871 13.1015625 32.1171875 C9.88404963 37.61662438 5.2889249 41.71780697 -0.82421875 43.62890625 C-6.36257865 44.57350982 -11.24664562 43.87667719 -16.25 41.375 C-21.75956631 36.61673819 -26.37244499 31.88179424 -27.3359375 24.38671875 C-27.42781017 18.03831731 -26.92060053 13.1444344 -23 8 C-15.65930837 0.52874271 -10.55154518 -1.09834798 0 0 Z " fill="#0C0B2E" transform="translate(124,210)"/>
<path d="M0 0 C1.27708328 -0.01134979 2.55416656 -0.02269958 3.86994934 -0.03439331 C5.27272097 -0.03175036 6.67549201 -0.02877921 8.07826233 -0.0255127 C9.56531409 -0.03285738 11.05236015 -0.04144478 12.53939819 -0.05117798 C16.5683607 -0.07335949 20.59711849 -0.07632641 24.62613368 -0.07443047 C27.99341311 -0.07431062 31.36064938 -0.08288033 34.72791678 -0.09120798 C42.67350406 -0.11042952 50.61898629 -0.11333026 58.56459045 -0.10656738 C66.75358164 -0.0999255 74.94212253 -0.1227995 83.13102239 -0.15988111 C90.16986207 -0.19059498 97.208557 -0.20193638 104.24746233 -0.1980443 C108.44796958 -0.19597873 112.64812626 -0.20142621 116.84856987 -0.22593689 C120.79930791 -0.24823001 124.74931443 -0.24630561 128.70005608 -0.22600937 C130.1468157 -0.22260392 131.59362482 -0.22766854 133.04031754 -0.24199295 C146.65584817 -0.36746652 146.65584817 -0.36746652 152.55506897 5.39440918 C152.55506897 5.72440918 152.55506897 6.05440918 152.55506897 6.39440918 C97.11506897 6.39440918 41.67506897 6.39440918 -15.44493103 6.39440918 C-10.69882233 1.64830048 -6.67447944 0.02249636 0 0 Z " fill="#E8E8EB" transform="translate(168.44493103027344,253.6055908203125)"/>
<path d="M0 0 C1.68496298 0.96885372 3.35178756 1.96986723 5 3 C7.69254991 3.70670728 7.69254991 3.70670728 10 4 C9.67 4.66 9.34 5.32 9 6 C6.27186361 6.48354277 3.6251008 6.84447132 0.875 7.125 C-0.24648437 7.25455078 -0.24648437 7.25455078 -1.390625 7.38671875 C-5.95450132 7.887632 -10.40991782 8.08522699 -15 8 C-13.0919472 16.21371301 -9.56584758 22.9462314 -5 30 C-4.68732178 30.62430908 -4.37464355 31.24861816 -4.05249023 31.8918457 C-2.86491686 34.00413142 -1.8659154 35.44281959 0 37 C3.73424483 37.94782551 7.35224959 37.88925453 11.1875 37.8125 C13.18099981 37.81122782 15.1745225 37.81736375 17.16796875 37.83203125 C18.04735107 37.81889893 18.9267334 37.8057666 19.83276367 37.79223633 C22 38 22 38 24 40 C15.99940496 40.06566974 8.00061353 40.06517811 0 40 C-0.87253418 39.99419922 -1.74506836 39.98839844 -2.64404297 39.98242188 C-12.48786359 39.86141609 -21.11771653 39.26714272 -28.79296875 32.39453125 C-33.36593916 27.46023972 -37.09378369 21.5780565 -37.5625 14.75 C-37 11 -37 11 -34.875 8.625 C-28.73028434 5.15189984 -23.09695241 4.65821932 -16.12695312 4.43359375 C-14.41366891 4.3550184 -12.70507669 4.18501449 -11 4 C-10.67 3.34 -10.34 2.68 -10 2 C-6.57345619 0.2867281 -3.81712441 -0.47714055 0 0 Z " fill="#151436" transform="translate(189,194)"/>
<path d="M0 0 C5.21657496 0.46028603 10.34326533 1.02282779 15.5 1.9375 C31.52472748 4.66215778 47.39795583 5.37487215 63.625 5.625 C65.71095156 5.66330412 67.79688942 5.70236236 69.8828125 5.7421875 C74.92175989 5.83678755 79.96078036 5.92129219 85 6 C87.34135403 10.43162451 88.49906412 13.99064117 89 19 C85.83316436 18.6891977 82.66656534 18.37604334 79.5 18.0625 C78.613125 17.97548828 77.72625 17.88847656 76.8125 17.79882812 C75.9359375 17.71181641 75.059375 17.62480469 74.15625 17.53515625 C73.36025391 17.456604 72.56425781 17.37805176 71.74414062 17.29711914 C69.57911928 17.06270357 67.41933007 16.77997207 65.26245117 16.47973633 C60.72069952 15.90746883 56.21753764 15.8298816 51.64453125 15.7890625 C49.87043303 15.76102275 48.09634458 15.73235854 46.32226562 15.703125 C43.55737286 15.66175135 40.79266888 15.62481224 38.02758789 15.59863281 C35.33703288 15.57102517 32.64727739 15.52519684 29.95703125 15.4765625 C29.13298294 15.47330963 28.30893463 15.47005676 27.45991516 15.46670532 C22.74527733 15.36587679 19.94874201 14.81707616 16 12 C11.82783371 11.71727078 8.48839716 12.67440189 5 15 C3.35 15 1.7 15 0 15 C0 10.05 0 5.1 0 0 Z " fill="#F9F9F9" transform="translate(173,183)"/>
<path d="M0 0 C11.6528326 -0.14750421 23.29026425 0.09718549 34.9375 0.4375 C36.00313675 0.4669722 36.00313675 0.4669722 37.09030151 0.49703979 C39.17361544 0.55541232 41.25672176 0.61876266 43.33984375 0.68359375 C44.55019287 0.72025146 45.76054199 0.75690918 47.00756836 0.79467773 C49.97156686 0.94710987 52.88045292 1.17044889 55.83056641 1.46118164 C63.14009162 2.15016849 70.46501499 2.46982216 77.79711723 2.81594849 C80.42679023 2.94013017 83.0563076 3.06725165 85.68580627 3.19506836 C91.26958128 3.4659625 96.85352905 3.73318007 102.4375 4 C108.91279043 4.30962347 115.38799982 4.62081106 121.86305428 4.93533325 C124.43291042 5.05944846 127.00287743 5.18104078 129.57286072 5.30249023 C134.04964823 5.51662015 138.52511999 5.7492132 143 6 C144.24717804 6.06944824 145.49435608 6.13889648 146.77932739 6.21044922 C147.87316742 6.28408691 148.96700745 6.35772461 150.09399414 6.43359375 C151.02917374 6.49474365 151.96435333 6.55589355 152.9278717 6.61889648 C153.61167404 6.74466064 154.29547638 6.8704248 155 7 C155.33 7.66 155.66 8.32 156 9 C122.77995474 9.24587411 89.69775521 8.93490111 56.5014801 7.57131958 C47.89961342 7.22397344 39.29579826 6.87920021 30.6875 6.75 C29.97037842 6.7286499 29.25325684 6.7072998 28.5144043 6.68530273 C24.06044188 6.65543952 21.68129007 7.60507976 18 10 C15.68823242 10.34057617 15.68823242 10.34057617 13.35546875 10.29296875 C12.09379883 10.2784668 12.09379883 10.2784668 10.80664062 10.26367188 C9.94232422 10.23853516 9.07800781 10.21339844 8.1875 10.1875 C6.86202148 10.16719727 6.86202148 10.16719727 5.50976562 10.14648438 C3.33957977 10.11129217 1.16970967 10.05748985 -1 10 C-0.67 6.7 -0.34 3.4 0 0 Z " fill="#F5F5F6" transform="translate(148,240)"/>
<path d="M0 0 C4.021875 -0.0825 8.04375 -0.165 12.1875 -0.25 C13.44715576 -0.28641602 14.70681152 -0.32283203 16.00463867 -0.36035156 C17.50861206 -0.37533691 17.50861206 -0.37533691 19.04296875 -0.390625 C20.06414795 -0.41157227 21.08532715 -0.43251953 22.13745117 -0.45410156 C25.74876717 0.11878098 27.38934073 1.49614175 30 4 C31.46123786 6.92247573 31.2477615 9.55853839 31.3125 12.8125 C31.34988281 14.03582031 31.38726562 15.25914062 31.42578125 16.51953125 C30.92980695 20.5737799 29.84899719 22.14043139 27 25 C24.33821779 26.3308911 22.31260604 26.11268993 19.3359375 26.09765625 C18.3257959 26.09515869 17.3156543 26.09266113 16.27490234 26.09008789 C14.98793457 26.08098389 13.7009668 26.07187988 12.375 26.0625 C6.249375 26.0315625 6.249375 26.0315625 0 26 C0 17.42 0 8.84 0 0 Z " fill="#FDFBF9" transform="translate(282,277)"/>
<path d="M0 0 C1.68464355 0.01474365 1.68464355 0.01474365 3.40332031 0.02978516 C18.67128098 0.46114597 29.17051616 7.48432261 40.875 16.625 C41.41382813 17.04281738 41.95265625 17.46063477 42.5078125 17.89111328 C51.77879834 25.12693505 51.77879834 25.12693505 54.875 29.625 C50.4520336 30.07289533 48.37453626 29.94774077 44.5859375 27.5 C43.46192485 26.55580934 42.35037364 25.59663691 41.25 24.625 C40.02771094 23.6081225 38.80105299 22.59647588 37.5703125 21.58984375 C36.64847168 20.83550049 36.64847168 20.83550049 35.70800781 20.06591797 C31.07494573 16.42389181 26.02026166 13.4834787 20.875 10.625 C20.10542969 10.16996094 19.33585937 9.71492187 18.54296875 9.24609375 C0.59067604 0.22278726 -24.77887232 9.42027969 -43.125 13.625 C-38.835 12.965 -34.545 12.305 -30.125 11.625 C-30.125 14.595 -30.125 17.565 -30.125 20.625 C-41.47740938 19.82464461 -52.79880573 18.72854495 -64.125 17.625 C-61.53061408 15.03061408 -58.67916122 14.28540431 -55.2734375 13.1640625 C-54.23589828 12.81630264 -54.23589828 12.81630264 -53.17739868 12.46151733 C-51.70388457 11.96943727 -50.2293526 11.48039642 -48.75390625 10.99414062 C-46.55424202 10.26790833 -44.35903597 9.52933196 -42.1640625 8.7890625 C-28.29459968 4.15219955 -14.77914985 -0.15635715 0 0 Z " fill="#F1F1F3" transform="translate(202.125,158.375)"/>
<path d="M0 0 C-0.66 0.33 -1.32 0.66 -2 1 C-2 1.66 -2 2.32 -2 3 C-1.36191406 3.04898438 -0.72382813 3.09796875 -0.06640625 3.1484375 C0.75988281 3.22320312 1.58617187 3.29796875 2.4375 3.375 C3.26121094 3.44460937 4.08492187 3.51421875 4.93359375 3.5859375 C5.95646484 3.79089844 5.95646484 3.79089844 7 4 C7.33 4.66 7.66 5.32 8 6 C5.08513797 6.47869596 2.17530041 6.90756053 -0.75 7.3125 C-1.55566406 7.44978516 -2.36132812 7.58707031 -3.19140625 7.72851562 C-9.8253596 8.5904072 -13.93474814 6.94064721 -19.9375 4.19018555 C-24.97398262 2.23284715 -29.773058 2.17029994 -35.125 2.25 C-36.80009644 2.26546875 -36.80009644 2.26546875 -38.5090332 2.28125 C-59.07884894 2.92644201 -78.87546722 10.98290713 -98 18 C-96.69804687 18.13277344 -95.39609375 18.26554687 -94.0546875 18.40234375 C-92.32811487 18.58063114 -90.60155293 18.75902202 -88.875 18.9375 C-88.0190625 19.02451172 -87.163125 19.11152344 -86.28125 19.20117188 C-81.82280819 19.66416391 -77.41326006 20.19693137 -73 21 C-73.66 21.33 -74.32 21.66 -75 22 C-75 22.66 -75 23.32 -75 24 C-75.82516113 23.90912109 -75.82516113 23.90912109 -76.66699219 23.81640625 C-88.70322586 22.53227791 -100.64165189 21.80603014 -112.75 21.8125 C-114.47814941 21.8115332 -114.47814941 21.8115332 -116.24121094 21.81054688 C-123.20947422 21.85499506 -130.07291219 22.24262213 -137 23 C-137 22.34 -137 21.68 -137 21 C-138.98 21 -140.96 21 -143 21 C-143 20.67 -143 20.34 -143 20 C-141.8253418 19.97981812 -141.8253418 19.97981812 -140.62695312 19.95922852 C-122.76667588 19.53044632 -108.52954595 17.17724214 -91.9296875 10.16503906 C-84.08014027 7.04353578 -75.85528436 4.92287333 -67.70703125 2.73144531 C-66.00816176 2.27240735 -64.31225744 1.8020905 -62.62109375 1.31542969 C-42.24354079 -4.53368274 -20.79653167 -2.47262372 0 0 Z " fill="#171637" transform="translate(238,157)"/>
<path d="M0 0 C2.26171875 0.03515625 2.26171875 0.03515625 5 1 C6.53739986 3.51871891 7.68702675 5.74679904 8.8125 8.4375 C9.12380859 9.13166016 9.43511719 9.82582031 9.75585938 10.54101562 C12 15.63595467 12 15.63595467 12 18 C12.66 18 13.32 18 14 18 C14.26554687 17.14148438 14.53109375 16.28296875 14.8046875 15.3984375 C16.01023801 11.97089192 17.47244386 8.85826202 19.125 5.625 C19.66382812 4.56539063 20.20265625 3.50578125 20.7578125 2.4140625 C21.16773437 1.61742187 21.57765625 0.82078125 22 0 C24.46518056 0.36345611 25.65966461 0.54689531 27.18847656 2.58227539 C27.50268555 3.24735107 27.81689453 3.91242676 28.140625 4.59765625 C28.48867187 5.31630859 28.83671875 6.03496094 29.1953125 6.77539062 C29.54335937 7.53013672 29.89140625 8.28488281 30.25 9.0625 C30.61351563 9.82111328 30.97703125 10.57972656 31.3515625 11.36132812 C32.24708794 13.23486161 33.12522601 15.11668803 34 17 C36.74054368 13.67513619 38.42376049 10.16942114 40.1875 6.25 C40.71730469 5.07953125 41.24710938 3.9090625 41.79296875 2.703125 C42.19128906 1.81109375 42.58960938 0.9190625 43 0 C44.65 0 46.3 0 48 0 C46.32846704 5.49089592 44.03266663 10.61555944 41.625 15.8125 C41.23828125 16.68326172 40.8515625 17.55402344 40.453125 18.45117188 C40.06898437 19.27810547 39.68484375 20.10503906 39.2890625 20.95703125 C38.94568848 21.70960205 38.60231445 22.46217285 38.24853516 23.23754883 C37 25 37 25 33 26 C30.03 20.06 27.06 14.12 24 8 C20.7 13.94 17.4 19.88 14 26 C13.01 26 12.02 26 11 26 C9.16055374 22.04447897 7.32948447 18.08513715 5.5 14.125 C4.71302734 12.43310547 4.71302734 12.43310547 3.91015625 10.70703125 C3.16572266 9.09248047 3.16572266 9.09248047 2.40625 7.4453125 C1.94541016 6.45031738 1.48457031 5.45532227 1.00976562 4.43017578 C0 2 0 2 0 0 Z " fill="#C88123" transform="translate(83,277)"/>
<path d="M0 0 C9.57 0 19.14 0 29 0 C29 1.32 29 2.64 29 4 C20.75 4 12.5 4 4 4 C4 6.31 4 8.62 4 11 C11.26 11 18.52 11 26 11 C26 12.32 26 13.64 26 15 C18.74 15 11.48 15 4 15 C4 17.31 4 19.62 4 22 C12.25 22 20.5 22 29 22 C29 23.32 29 24.64 29 26 C19.43 26 9.86 26 0 26 C0 17.42 0 8.84 0 0 Z " fill="#C67C19" transform="translate(319,277)"/>
<path d="M0 0 C9.57 0 19.14 0 29 0 C29 1.32 29 2.64 29 4 C20.75 4 12.5 4 4 4 C4 6.31 4 8.62 4 11 C11.26 11 18.52 11 26 11 C26 12.32 26 13.64 26 15 C18.74 15 11.48 15 4 15 C4 17.31 4 19.62 4 22 C12.25 22 20.5 22 29 22 C29 23.32 29 24.64 29 26 C19.43 26 9.86 26 0 26 C0 17.42 0 8.84 0 0 Z " fill="#C77E1C" transform="translate(208,277)"/>
<path d="M0 0 C9.57 0 19.14 0 29 0 C29 1.32 29 2.64 29 4 C20.75 4 12.5 4 4 4 C4 6.31 4 8.62 4 11 C11.26 11 18.52 11 26 11 C26 12.32 26 13.64 26 15 C18.74 15 11.48 15 4 15 C4 17.31 4 19.62 4 22 C12.25 22 20.5 22 29 22 C29 23.32 29 24.64 29 26 C19.43 26 9.86 26 0 26 C0 17.42 0 8.84 0 0 Z " fill="#C67B17" transform="translate(173,277)"/>
<path d="M0 0 C0.99 0 1.98 0 3 0 C4.79345703 2.17138672 4.79345703 2.17138672 6.7578125 5.1796875 C7.46550781 6.25347656 8.17320312 7.32726562 8.90234375 8.43359375 C9.64335925 9.58064514 10.38424315 10.72778156 11.125 11.875 C11.87276791 13.01493352 12.62145505 14.15426462 13.37109375 15.29296875 C18.75826496 23.51652992 18.75826496 23.51652992 20 26 C17.75 26.3125 17.75 26.3125 15 26 C14.4946875 25.1853125 13.989375 24.370625 13.46875 23.53125 C10.20454135 20.18440316 8.06802555 20.3527617 3.5390625 20.20507812 C2.61867188 20.19927734 1.69828125 20.19347656 0.75 20.1875 C-0.18585938 20.16236328 -1.12171875 20.13722656 -2.0859375 20.11132812 C-4.39104732 20.0525243 -6.69426174 20.01619733 -9 20 C-9.309375 20.804375 -9.61875 21.60875 -9.9375 22.4375 C-11 25 -11 25 -12 26 C-13.66617115 26.04063832 -15.33388095 26.042721 -17 26 C-12.50974834 17.32916922 -6.96981816 6.96981816 0 0 Z " fill="#C88121" transform="translate(369,277)"/>
<path d="M0 0 C4.021875 -0.0825 8.04375 -0.165 12.1875 -0.25 C13.44715576 -0.28641602 14.70681152 -0.32283203 16.00463867 -0.36035156 C17.50861206 -0.37533691 17.50861206 -0.37533691 19.04296875 -0.390625 C20.06414795 -0.41157227 21.08532715 -0.43251953 22.13745117 -0.45410156 C25.74876717 0.11878098 27.38934073 1.49614175 30 4 C31.46123786 6.92247573 31.2477615 9.55853839 31.3125 12.8125 C31.34988281 14.03582031 31.38726562 15.25914062 31.42578125 16.51953125 C30.92980695 20.5737799 29.84899719 22.14043139 27 25 C24.33821779 26.3308911 22.31260604 26.11268993 19.3359375 26.09765625 C18.3257959 26.09515869 17.3156543 26.09266113 16.27490234 26.09008789 C14.98793457 26.08098389 13.7009668 26.07187988 12.375 26.0625 C6.249375 26.0315625 6.249375 26.0315625 0 26 C0 17.42 0 8.84 0 0 Z M4 4 C4 9.94 4 15.88 4 22 C7.27132607 22.08081043 10.54066421 22.14040709 13.8125 22.1875 C15.2056543 22.22520508 15.2056543 22.22520508 16.62695312 22.26367188 C17.51962891 22.27333984 18.41230469 22.28300781 19.33203125 22.29296875 C20.15421143 22.3086792 20.9763916 22.32438965 21.82348633 22.34057617 C24.52452024 21.9179242 25.38414565 21.17185412 27 19 C27.47643691 16.13490542 27.47643691 16.13490542 27.375 13 C27.38273437 11.948125 27.39046875 10.89625 27.3984375 9.8125 C26.94356369 6.60162604 26.5266478 5.91986131 24 4 C21.78026057 3.58820238 21.78026057 3.58820238 19.33203125 3.70703125 C17.99301758 3.7215332 17.99301758 3.7215332 16.62695312 3.73632812 C15.69818359 3.76146484 14.76941406 3.78660156 13.8125 3.8125 C12.40194336 3.83280273 12.40194336 3.83280273 10.96289062 3.85351562 C8.64168265 3.88886397 6.32076912 3.94267085 4 4 Z " fill="#C77F1E" transform="translate(282,277)"/>
<path d="M0 0 C0.42410156 1.03898438 0.84820312 2.07796875 1.28515625 3.1484375 C4.45517754 10.74227407 7.65104424 17.61344199 12.71484375 24.1796875 C14 26 14 26 14 28 C6.16240468 28.55982824 1.37519842 26.68481693 -4.75 21.8125 C-8.2245086 17.46936425 -10.74079724 12.85123031 -11.25 7.25 C-9.16342808 3.49417054 -4.4198967 0 0 0 Z " fill="#F9F9FA" transform="translate(172,203)"/>
<path d="M0 0 C1.32 0 2.64 0 4 0 C4 3.63 4 7.26 4 11 C11.59 11 19.18 11 27 11 C27 7.37 27 3.74 27 0 C28.32 0 29.64 0 31 0 C31 8.58 31 17.16 31 26 C29.35 26 27.7 26 26 26 C26 22.37 26 18.74 26 15 C19.07 15 12.14 15 5 15 C5 18.63 5 22.26 5 26 C3.35 26 1.7 26 0 26 C0 17.42 0 8.84 0 0 Z " fill="#CB872C" transform="translate(135,277)"/>
<path d="M0 0 C14.6142666 -1.35131917 26.54925934 3.47164603 38.05859375 12.16796875 C40 14 40 14 41 17 C24.66356023 17.84742339 14.77067458 12.56204259 2 3 C1.34 2.01 0.68 1.02 0 0 Z " fill="#252444" transform="translate(360,198)"/>
<path d="M0 0 C5.57546669 3.12226135 10.55559745 8.50456323 12.875 14.5 C13.7385639 22.09132917 13.71017516 29.29344475 8.875 35.5 C4.58166893 40.04767532 0.34298002 43.14059965 -6.02734375 43.80078125 C-13.47671787 43.82954331 -17.9018035 43.18599708 -23.75 38.3125 C-29.27141064 31.7739874 -30.88243233 26.32567284 -30.5625 17.6875 C-29.73828376 11.68249594 -27.57254759 7.52747813 -22.89453125 3.65234375 C-15.71740688 -1.30022331 -8.37206944 -3.70459993 0 0 Z M-24.125 8.5 C-28.162765 14.10036756 -29.16428491 19.7121704 -28.125 26.5 C-26.24334616 33.02698675 -21.7860506 37.86301219 -16.125 41.5 C-10.12596473 43.07095717 -5.11071733 43.28013918 0.5 40.4375 C5.7728966 37.27916091 8.90906591 33.39780228 10.875 27.5 C11.55723905 20.37547511 11.87508599 14.04637757 7.4140625 8.15234375 C2.60408925 2.98833693 -1.54643971 0.73586523 -8.703125 0.3671875 C-15.05290298 0.71540113 -19.75566989 4.13066989 -24.125 8.5 Z " fill="#E0DFE4" transform="translate(342.125,209.5)"/>
<path d="M0 0 C6.46825692 2.43951474 10.06610869 7.03009548 13.75 12.6875 C16.15733703 19.06694312 15.81418959 25.85532871 13.1015625 32.1171875 C9.88404963 37.61662438 5.2889249 41.71780697 -0.82421875 43.62890625 C-6.36257865 44.57350982 -11.24664562 43.87667719 -16.25 41.375 C-21.75956631 36.61673819 -26.37244499 31.88179424 -27.3359375 24.38671875 C-27.42781017 18.03831731 -26.92060053 13.1444344 -23 8 C-15.65930837 0.52874271 -10.55154518 -1.09834798 0 0 Z M-21.5 10.125 C-24.46821987 15.81408808 -24.77132289 21.67164628 -24 28 C-21.78191943 33.67905111 -17.87650741 37.50163599 -13 41 C-7.62563291 42.7914557 -2.93205434 42.71176628 2.1875 40.375 C7.28304555 37.55192761 10.78113559 33.41091497 13 28 C13.78590903 21.60306601 13.70892953 15.41739155 10.41015625 9.75390625 C6.17537762 4.48682701 1.06757848 1.37022499 -5.625 0.5625 C-12.14107428 0.64665594 -17.83031515 4.91298383 -21.5 10.125 Z " fill="#D9D9DF" transform="translate(124,210)"/>
<path d="M0 0 C8.61999836 6.4344747 14.46260252 13.45570379 17 24 C17.1875 27.5625 17.1875 27.5625 17 30 C16.67 30 16.34 30 16 30 C15.67 31.98 15.34 33.96 15 36 C14.67 36 14.34 36 14 36 C13.90203125 34.9378125 13.8040625 33.875625 13.703125 32.78125 C12.60664818 21.98625059 11.11958973 14.22489293 2.921875 6.53515625 C-3.38347095 1.49856894 -11.58897609 -1.52984533 -19.6875 -1.32421875 C-27.40800202 -0.2417835 -34.33923355 2.88594808 -40.765625 7.1796875 C-44.36003113 8.49931213 -47.95783385 8.20675483 -51.75 8.125 C-52.54277344 8.11597656 -53.33554687 8.10695312 -54.15234375 8.09765625 C-56.10169281 8.07417012 -58.05088575 8.03830137 -60 8 C-60 7.67 -60 7.34 -60 7 C-58.9378125 6.99742187 -57.875625 6.99484375 -56.78125 6.9921875 C-46.43922752 6.83705735 -46.43922752 6.83705735 -37.82421875 1.56640625 C-27.80704386 -7.03506513 -10.98435371 -6.26008 0 0 Z " fill="#888899" transform="translate(351,201)"/>
<path d="M0 0 C1.32 0 2.64 0 4 0 C4 7.26 4 14.52 4 22 C10.6 22 17.2 22 24 22 C24 23.32 24 24.64 24 26 C16.08 26 8.16 26 0 26 C0 17.42 0 8.84 0 0 Z " fill="#C77D1B" transform="translate(393,277)"/>
<path d="M0 0 C1.32 0 2.64 0 4 0 C4 7.26 4 14.52 4 22 C10.27 22 16.54 22 23 22 C23 23.32 23 24.64 23 26 C15.41 26 7.82 26 0 26 C0 17.42 0 8.84 0 0 Z " fill="#C77E1D" transform="translate(244,277)"/>
<path d="M0 0 C1.08466553 -0.0014502 2.16933105 -0.00290039 3.28686523 -0.00439453 C10.55384708 0.09509957 17.49502893 0.98795168 24.625 2.375 C24.625 3.035 24.625 3.695 24.625 4.375 C23.37702637 4.36452637 22.12905273 4.35405273 20.84326172 4.34326172 C16.09801237 4.30635186 11.35277489 4.28384868 6.60742188 4.26513672 C4.57517343 4.25523733 2.54293858 4.24171443 0.51074219 4.22412109 C-13.9088378 4.10264792 -28.03864636 4.81221941 -42.375 6.375 C-34.32543371 -1.67456629 -10.73491888 0.00150613 0 0 Z " fill="#272745" transform="translate(125.375,180.625)"/>
<path d="M0 0 C1.010625 0.53625 2.02125 1.0725 3.0625 1.625 C4.0215625 2.305625 4.0215625 2.305625 5 3 C5 3.66 5 4.32 5 5 C5.66 5 6.32 5 7 5 C8.2890625 6.53125 8.2890625 6.53125 9.625 8.5 C10.29402344 9.47453125 10.29402344 9.47453125 10.9765625 10.46875 C11.31429687 10.9740625 11.65203125 11.479375 12 12 C11.67 12.66 11.34 13.32 11 14 C7.59723568 12.86574523 6.8894922 11.91594551 4.6875 9.1875 C-0.61460473 2.97392234 -6.04245464 -0.4273523 -14.31640625 -1.22265625 C-20.55376775 -1.44716222 -26.2299477 -0.41898347 -32 2 C-32.66 2.66 -33.32 3.32 -34 4 C-36.125 3.625 -36.125 3.625 -38 3 C-25.73414536 -5.84476593 -13.60443582 -7.5800183 0 0 Z " fill="#A5A5B2" transform="translate(134,203)"/>
<path d="M0 0 C4.95 0 9.9 0 15 0 C15.33 2.64 15.66 5.28 16 8 C11.38 8 6.76 8 2 8 C0 3 0 3 0 0 Z " fill="#EDEDEF" transform="translate(286,236)"/>
<path d="M0 0 C9.58963777 -1.08973156 18.34539586 3.98783251 25.671875 9.765625 C26.11015625 10.17296875 26.5484375 10.5803125 27 11 C27 11.33 27 11.66 27 12 C16.5316206 12.91029386 7.90505153 7.40813752 0 1 C0 0.67 0 0.34 0 0 Z " fill="#131233" transform="translate(370,199)"/>
<path d="M0 0 C0.66 0 1.32 0 2 0 C2.33 1.65 2.66 3.3 3 5 C5.31 5 7.62 5 10 5 C9.01 5.804375 9.01 5.804375 8 6.625 C5.68975201 8.89958592 5.68975201 8.89958592 5.75 12.25 C5.87375 13.61125 5.87375 13.61125 6 15 C4.02 14.34 2.04 13.68 0 13 C-0.99 13.99 -1.98 14.98 -3 16 C-3.66 15.67 -4.32 15.34 -5 15 C-4.7525 14.0925 -4.505 13.185 -4.25 12.25 C-3.61740673 8.91162152 -3.61740673 8.91162152 -5.9375 6.625 C-6.618125 6.08875 -7.29875 5.5525 -8 5 C-5.69 5 -3.38 5 -1 5 C-0.67 3.35 -0.34 1.7 0 0 Z " fill="#CB872D" transform="translate(249,332)"/>
<path d="M0 0 C0.80308594 0.01417969 1.60617187 0.02835937 2.43359375 0.04296875 C3.64208984 0.05263672 3.64208984 0.05263672 4.875 0.0625 C6.87109375 0.23046875 6.87109375 0.23046875 7.87109375 1.23046875 C8.00390625 3.04296875 8.00390625 3.04296875 7.99609375 5.23046875 C7.99867188 5.95234375 8.00125 6.67421875 8.00390625 7.41796875 C7.87109375 9.23046875 7.87109375 9.23046875 6.87109375 10.23046875 C4.875 10.3984375 4.875 10.3984375 2.43359375 10.41796875 C1.22896484 10.43923828 1.22896484 10.43923828 0 10.4609375 C-2.12890625 10.23046875 -2.12890625 10.23046875 -4.12890625 8.23046875 C-4.37890625 5.23046875 -4.37890625 5.23046875 -4.12890625 2.23046875 C-2.12890625 0.23046875 -2.12890625 0.23046875 0 0 Z " fill="#8F8F9F" transform="translate(301.12890625,313.76953125)"/>
<path d="M0 0 C1.60488281 0.00483398 1.60488281 0.00483398 3.2421875 0.00976562 C4.35335938 0.01814453 5.46453125 0.02652344 6.609375 0.03515625 C8.29933594 0.04192383 8.29933594 0.04192383 10.0234375 0.04882812 C12.80213717 0.06060228 15.58072909 0.07704785 18.359375 0.09765625 C18.359375 0.42765625 18.359375 0.75765625 18.359375 1.09765625 C17.75464355 1.13729492 17.14991211 1.17693359 16.52685547 1.21777344 C13.76108127 1.409466 10.99808827 1.62831393 8.234375 1.84765625 C7.28304688 1.90953125 6.33171875 1.97140625 5.3515625 2.03515625 C-0.48890088 2.52186153 -4.15142391 3.2497696 -8.640625 7.09765625 C-10.66010155 9.79029165 -12.29555708 12.38834997 -13.765625 15.41015625 C-14.640625 17.09765625 -14.640625 17.09765625 -16.640625 18.09765625 C-16.32011039 10.88607761 -14.89907214 6.35610339 -9.640625 1.09765625 C-6.42797608 -0.02411579 -3.38088812 -0.01798345 0 0 Z " fill="#161536" transform="translate(404.640625,222.90234375)"/>
<path d="M0 0 C7.27056775 0.11726722 10.83775804 1.93775298 16.58984375 6.28515625 C22.07522968 10.18804835 28.53000454 11.49803677 35 13 C35 13.33 35 13.66 35 14 C21.69702874 15.32441086 10.59388886 8.31320069 0 1 C0 0.67 0 0.34 0 0 Z " fill="#E6E6EA" transform="translate(363,199)"/>
<path d="M0 0 C1.47583955 0.0001591 2.95168467 0.00585225 4.42749023 0.01586914 C5.20293686 0.01728409 5.97838348 0.01869904 6.77732849 0.02015686 C9.26361893 0.02577194 11.74982059 0.03832693 14.23608398 0.05102539 C15.91772331 0.05603845 17.59936405 0.06060169 19.28100586 0.06469727 C23.41189965 0.07574626 27.54272674 0.09302094 31.67358398 0.11352539 C31.67358398 0.44352539 31.67358398 0.77352539 31.67358398 1.11352539 C28.04358398 1.11352539 24.41358398 1.11352539 20.67358398 1.11352539 C20.67358398 1.77352539 20.67358398 2.43352539 20.67358398 3.11352539 C9.12358398 3.11352539 -2.42641602 3.11352539 -14.32641602 3.11352539 C-14.32641602 2.78352539 -14.32641602 2.45352539 -14.32641602 2.11352539 C-13.61614258 2.05293945 -12.90586914 1.99235352 -12.17407227 1.92993164 C-10.79541992 1.80424805 -10.79541992 1.80424805 -9.38891602 1.67602539 C-8.47239258 1.59481445 -7.55586914 1.51360352 -6.61157227 1.42993164 C-3.41191746 0.98690251 -3.60979253 0.12319659 0 0 Z " fill="#4C4B65" transform="translate(202.326416015625,197.886474609375)"/>
<path d="M0 0 C1.34313399 0.64669414 2.67391178 1.31903578 4 2 C4.804375 2.391875 5.60875 2.78375 6.4375 3.1875 C12.50952018 7.48234354 15.37557238 13.88345994 17 21 C17.1875 24.5625 17.1875 24.5625 17 27 C16.67 27 16.34 27 16 27 C15.67 28.98 15.34 30.96 15 33 C14.67 33 14.34 33 14 33 C13.90203125 31.9378125 13.8040625 30.875625 13.703125 29.78125 C12.49504237 17.87501837 10.59503048 10.94536601 1.609375 2.56640625 C1.07828125 2.04949219 0.5471875 1.53257812 0 1 C0 0.67 0 0.34 0 0 Z " fill="#BBBBC4" transform="translate(351,204)"/>
<path d="M0 0 C1.81242052 -0.02687279 3.62495233 -0.04633715 5.4375 -0.0625 C6.44683594 -0.07410156 7.45617187 -0.08570313 8.49609375 -0.09765625 C11 0 11 0 12 1 C12.07179964 2.51928038 12.08392007 4.04167482 12.0625 5.5625 C12.05347656 6.38878906 12.04445312 7.21507812 12.03515625 8.06640625 C12.02355469 8.70449219 12.01195312 9.34257812 12 10 C11.34 9.01 10.68 8.02 10 7 C8.03638136 6.42251197 8.03638136 6.42251197 5.875 6.3125 C3.956875 6.1578125 3.956875 6.1578125 2 6 C2 7.32 2 8.64 2 10 C1.34 10 0.68 10 0 10 C0 6.7 0 3.4 0 0 Z " fill="#4C4B65" transform="translate(207,314)"/>
<path d="M0 0 C5.41995412 2.39115623 8.31104098 6.89929422 11 12 C11 12.99 11 13.98 11 15 C3.125 14.125 3.125 14.125 2 13 C1.63239269 10.67182036 1.29758419 8.3381615 1 6 C0.67 6 0.34 6 0 6 C0 4.02 0 2.04 0 0 Z " fill="#DFDFE4" transform="translate(263,209)"/>
<path d="M0 0 C0.99 0.33 1.98 0.66 3 1 C2.29875 1.495 1.5975 1.99 0.875 2.5 C-3.41999271 6.23477627 -7.1838091 10.55142731 -9 16 C-9.06970052 18.39490986 -9.08448003 20.79167691 -9.0625 23.1875 C-9.05347656 24.45980469 -9.04445313 25.73210937 -9.03515625 27.04296875 C-9.02355469 28.01878906 -9.01195312 28.99460938 -9 30 C-9.66 30 -10.32 30 -11 30 C-12.96173573 24.1147928 -13.05082274 17.2325758 -11.12890625 11.3203125 C-8.41577309 6.03637447 -5.17874795 2.8770822 0 0 Z " fill="#DCDCE1" transform="translate(324,210)"/>
<path d="M0 0 C21.16913947 1.03264095 21.16913947 1.03264095 29 3 C29.33 3.66 29.66 4.32 30 5 C8.18621465 5.82555811 8.18621465 5.82555811 0 1 C0 0.67 0 0.34 0 0 Z " fill="#E2E2E6" transform="translate(216,158)"/>
<path d="M0 0 C5.53781436 3.10117604 10.62327292 8.51040597 12.875 14.5 C12.8515625 17.078125 12.8515625 17.078125 12.5 19.75 C12.38914062 20.64203125 12.27828125 21.5340625 12.1640625 22.453125 C12.02097656 23.46632812 12.02097656 23.46632812 11.875 24.5 C11.545 24.5 11.215 24.5 10.875 24.5 C10.86082031 23.8709375 10.84664063 23.241875 10.83203125 22.59375 C10.38394473 14.5524135 8.1700401 9.48852474 2.1875 4.0625 C-3.65526792 1.3064774 -9.75752593 1.45459912 -16.125 1.5 C-16.125 0.84 -16.125 0.18 -16.125 -0.5 C-10.69846803 -2.30884399 -5.28106952 -2.33684753 0 0 Z " fill="#CBCBD2" transform="translate(342.125,209.5)"/>
<path d="M0 0 C3.33557632 2.9905167 5.15083921 5.93184627 7 10 C2.71 10 -1.58 10 -6 10 C-4.29395475 5.73488687 -2.90212286 3.38581001 0 0 Z " fill="#FCF8F3" transform="translate(370,283)"/>
<path d="M0 0 C0.66 0.33 1.32 0.66 2 1 C2 1.99 2 2.98 2 4 C3.98 4 5.96 4 8 4 C7.505 4.391875 7.01 4.78375 6.5 5.1875 C4.54406857 7.55091715 4.75792027 9.01435003 5 12 C4.236875 11.814375 3.47375 11.62875 2.6875 11.4375 C-0.08967375 10.77180827 -0.08967375 10.77180827 -3 12 C-2.938125 11.236875 -2.87625 10.47375 -2.8125 9.6875 C-2.74101915 6.95474688 -2.74101915 6.95474688 -4.5 5.1875 C-4.995 4.795625 -5.49 4.40375 -6 4 C-4.35 4 -2.7 4 -1 4 C-0.67 2.68 -0.34 1.36 0 0 Z " fill="#C98326" transform="translate(275,332)"/>
<path d="M0 0 C0.66 0.33 1.32 0.66 2 1 C2 1.99 2 2.98 2 4 C3.98 4 5.96 4 8 4 C7.505 4.391875 7.01 4.78375 6.5 5.1875 C4.54406857 7.55091715 4.75792027 9.01435003 5 12 C4.236875 11.814375 3.47375 11.62875 2.6875 11.4375 C-0.08967375 10.77180827 -0.08967375 10.77180827 -3 12 C-2.938125 11.236875 -2.87625 10.47375 -2.8125 9.6875 C-2.74101915 6.95474688 -2.74101915 6.95474688 -4.5 5.1875 C-4.995 4.795625 -5.49 4.40375 -6 4 C-4.35 4 -2.7 4 -1 4 C-0.67 2.68 -0.34 1.36 0 0 Z " fill="#C98325" transform="translate(223,332)"/>
<path d="M0 0 C5.2905277 -0.66131596 8.15696618 0.95446148 12.4609375 3.7109375 C12.96882812 4.13632813 13.47671875 4.56171875 14 5 C14 5.66 14 6.32 14 7 C14.66 7 15.32 7 16 7 C17.2890625 8.53125 17.2890625 8.53125 18.625 10.5 C19.07101563 11.1496875 19.51703125 11.799375 19.9765625 12.46875 C20.48316406 13.22671875 20.48316406 13.22671875 21 14 C20.67 14.66 20.34 15.32 20 16 C16.59723568 14.86574523 15.8894922 13.91594551 13.6875 11.1875 C9.7715761 6.56935347 5.49714452 3.53714362 0 1 C0 0.67 0 0.34 0 0 Z " fill="#B9B9C3" transform="translate(125,201)"/>
<path d="M0 0 C1.64283865 0.12875422 3.29020772 0.20222307 4.9375 0.24609375 C5.91460937 0.27896484 6.89171875 0.31183594 7.8984375 0.34570312 C9.966034 0.40689773 12.0337497 0.46419001 14.1015625 0.51757812 C15.56722656 0.56881836 15.56722656 0.56881836 17.0625 0.62109375 C17.96097656 0.6461499 18.85945313 0.67120605 19.78515625 0.69702148 C22 1 22 1 24 3 C20.22918364 3.0294985 16.45839769 3.04696364 12.6875 3.0625 C11.63498047 3.07087891 10.58246094 3.07925781 9.49804688 3.08789062 C2.60688314 3.10909421 -4.15030513 2.75671682 -11 2 C-11 1.34 -11 0.68 -11 0 C-9.54263913 -0.19491452 -8.08405407 -0.38069358 -6.625 -0.5625 C-5.81289062 -0.66691406 -5.00078125 -0.77132812 -4.1640625 -0.87890625 C-2 -1 -2 -1 0 0 Z " fill="#070629" transform="translate(189,231)"/>
<path d="M0 0 C6.30719307 0.92065781 9.91921368 1.9977458 14 7 C9.38 7 4.76 7 0 7 C0 4.69 0 2.38 0 0 Z " fill="#E7E7EA" transform="translate(265,227)"/>
<path d="M0 0 C4.40431982 2.20215991 5.5721404 3.83795497 8 8 C8 8.66 8 9.32 8 10 C7.34 10 6.68 10 6 10 C6 9.34 6 8.68 6 8 C5.07767578 8.10828125 5.07767578 8.10828125 4.13671875 8.21875 C3.32847656 8.3115625 2.52023438 8.404375 1.6875 8.5 C0.88699219 8.5928125 0.08648437 8.685625 -0.73828125 8.78125 C-3 9 -3 9 -6 9 C-4.02 6.03 -2.04 3.06 0 0 Z " fill="#282746" transform="translate(234,314)"/>
<path d="M0 0 C4.40431982 2.20215991 5.5721404 3.83795497 8 8 C8 8.66 8 9.32 8 10 C7.34 10 6.68 10 6 10 C6 9.34 6 8.68 6 8 C5.07767578 8.10828125 5.07767578 8.10828125 4.13671875 8.21875 C3.32847656 8.3115625 2.52023438 8.404375 1.6875 8.5 C0.88699219 8.5928125 0.08648437 8.685625 -0.73828125 8.78125 C-3 9 -3 9 -6 9 C-4.02 6.03 -2.04 3.06 0 0 Z " fill="#282746" transform="translate(195,314)"/>
<path d="M0 0 C1.37478516 0.01740234 1.37478516 0.01740234 2.77734375 0.03515625 C3.69644531 0.04417969 4.61554688 0.05320312 5.5625 0.0625 C6.27277344 0.07410156 6.98304688 0.08570313 7.71484375 0.09765625 C8.04484375 1.08765625 8.37484375 2.07765625 8.71484375 3.09765625 C5.41484375 2.76765625 2.11484375 2.43765625 -1.28515625 2.09765625 C-1.28515625 4.07765625 -1.28515625 6.05765625 -1.28515625 8.09765625 C2.01484375 7.76765625 5.31484375 7.43765625 8.71484375 7.09765625 C7.72484375 8.58265625 7.72484375 8.58265625 6.71484375 10.09765625 C4.5859375 10.42578125 4.5859375 10.42578125 2.15234375 10.34765625 C1.34667969 10.3321875 0.54101562 10.31671875 -0.2890625 10.30078125 C-2.28515625 10.09765625 -2.28515625 10.09765625 -3.28515625 9.09765625 C-3.41796875 7.28515625 -3.41796875 7.28515625 -3.41015625 5.09765625 C-3.41273438 4.37578125 -3.4153125 3.65390625 -3.41796875 2.91015625 C-3.21558021 0.14814788 -2.76566638 0.11819087 0 0 Z " fill="#3C3B57" transform="translate(265.28515625,313.90234375)"/>
<path d="M0 0 C1.37478516 0.01740234 1.37478516 0.01740234 2.77734375 0.03515625 C3.69644531 0.04417969 4.61554688 0.05320312 5.5625 0.0625 C6.27277344 0.07410156 6.98304688 0.08570313 7.71484375 0.09765625 C8.04484375 1.08765625 8.37484375 2.07765625 8.71484375 3.09765625 C5.41484375 2.76765625 2.11484375 2.43765625 -1.28515625 2.09765625 C-1.28515625 4.07765625 -1.28515625 6.05765625 -1.28515625 8.09765625 C2.01484375 7.76765625 5.31484375 7.43765625 8.71484375 7.09765625 C7.72484375 8.58265625 7.72484375 8.58265625 6.71484375 10.09765625 C4.5859375 10.42578125 4.5859375 10.42578125 2.15234375 10.34765625 C1.34667969 10.3321875 0.54101562 10.31671875 -0.2890625 10.30078125 C-2.28515625 10.09765625 -2.28515625 10.09765625 -3.28515625 9.09765625 C-3.41796875 7.28515625 -3.41796875 7.28515625 -3.41015625 5.09765625 C-3.41273438 4.37578125 -3.4153125 3.65390625 -3.41796875 2.91015625 C-3.21558021 0.14814788 -2.76566638 0.11819087 0 0 Z " fill="#3C3B57" transform="translate(177.28515625,313.90234375)"/>
<path d="M0 0 C3.48763093 1.74381547 6.03368051 3.52806709 9 6 C9.33 4.02 9.66 2.04 10 0 C10.66 0 11.32 0 12 0 C12 3.3 12 6.6 12 10 C7.40693504 8.5140084 4.56430755 6.14985318 1 3 C1 5.31 1 7.62 1 10 C0.67 10 0.34 10 0 10 C0 6.7 0 3.4 0 0 Z " fill="#242342" transform="translate(314,314)"/>
<path d="M0 0 C0.33 0.99 0.66 1.98 1 3 C-4.61 3.66 -10.22 4.32 -16 5 C-16 4.01 -16 3.02 -16 2 C-10.61972975 0.80911014 -5.54708616 -0.2919519 0 0 Z " fill="#E9E8EC" transform="translate(110,179)"/>
<path d="M0 0 C4.95 0 9.9 0 15 0 C15 0.66 15 1.32 15 2 C10.126739 3.5912689 6.19209404 4.21192221 1 4 C0.67 2.68 0.34 1.36 0 0 Z " fill="#CFCFD6" transform="translate(410,244)"/>
<path d="M0 0 C1.19109375 0.08314453 1.19109375 0.08314453 2.40625 0.16796875 C4.5 0.8125 4.5 0.8125 5.78125 2.86328125 C6.0184375 3.50652344 6.255625 4.14976562 6.5 4.8125 C5.51 4.8125 4.52 4.8125 3.5 4.8125 C3.17 4.4825 2.84 4.1525 2.5 3.8125 C0.49988837 4.03831905 -1.50041475 4.26828001 -3.4921875 4.55859375 C-5.5 4.8125 -5.5 4.8125 -8.5 4.8125 C-6.42119146 0.20942394 -4.98784532 -0.42914903 0 0 Z " fill="#8F8E9E" transform="translate(186.5,191.1875)"/>
<path d="M0 0 C0.66 0.99 1.32 1.98 2 3 C2.96116085 4.20212039 3.94149384 5.38908816 4.9375 6.5625 C5.69353516 7.46162109 5.69353516 7.46162109 6.46484375 8.37890625 C9.36642393 11.44291586 11.95132225 12.34345766 16 13 C14.375 14.1875 14.375 14.1875 12 15 C6.41303144 12.97918159 2.34029775 9.61967287 -0.375 4.3125 C-1 2 -1 2 0 0 Z " fill="#D3D3D9" transform="translate(315,238)"/>
<path d="M0 0 C2.74680054 1.37340027 3.09177238 2.98738257 4.375 5.75 C6.22435573 9.58041633 8.13428916 12.81587684 11 16 C6.69688052 15.26258907 4.96407513 13.33563404 2.26171875 10.0546875 C0.22161697 6.7324165 0.13538015 3.85833426 0 0 Z " fill="#EFEFF2" transform="translate(98,234)"/>
<path d="M0 0 C1.67542976 0.28604898 3.34385343 0.61781233 5 1 C5 2.65 5 4.3 5 6 C2.625 6.625 2.625 6.625 0 7 C-0.66 6.34 -1.32 5.68 -2 5 C-1.46428571 1.46428571 -1.46428571 1.46428571 0 0 Z " fill="#E3E3E7" transform="translate(332,228)"/>
<path d="M0 0 C0.66 0.33 1.32 0.66 2 1 C2 1.99 2 2.98 2 4 C0.56570999 4.67354499 -0.87257057 5.33859701 -2.3125 6 C-3.51326172 6.556875 -3.51326172 6.556875 -4.73828125 7.125 C-7 8 -7 8 -10 8 C-10 7.01 -10 6.02 -10 5 C-8.38007835 4.13624104 -6.75388139 3.28424146 -5.125 2.4375 C-4.22007812 1.96183594 -3.31515625 1.48617187 -2.3828125 0.99609375 C-1.20332031 0.50302734 -1.20332031 0.50302734 0 0 Z " fill="#807F91" transform="translate(349,222)"/>
<path d="M0 0 C6.56497775 0.27936076 10.92528977 2.89449408 16 7 C16.33 7.66 16.66 8.32 17 9 C13.18958811 7.79671204 9.42913208 6.46359896 5.6875 5.0625 C4.82511719 4.74410156 3.96273438 4.42570313 3.07421875 4.09765625 C1 3 1 3 0 0 Z " fill="#9393A2" transform="translate(340,198)"/>
<path d="M0 0 C-0.0868276 2.12577907 -0.1949951 4.25069581 -0.3125 6.375 C-0.37050781 7.55835938 -0.42851563 8.74171875 -0.48828125 9.9609375 C-0.65714844 10.96382812 -0.82601562 11.96671875 -1 13 C-1.99 13.66 -2.98 14.32 -4 15 C-4.02705729 13.22925083 -4.04642195 11.45838289 -4.0625 9.6875 C-4.07410156 8.70136719 -4.08570312 7.71523437 -4.09765625 6.69921875 C-4 4 -4 4 -3 1 C-1 0 -1 0 0 0 Z " fill="#DEDDE2" transform="translate(101,222)"/>
<path d="M0 0 C3.39417765 3.12621626 5.6062718 5.56541027 7 10 C5.68 10 4.36 10 3 10 C-0.22265625 4.82421875 -0.22265625 4.82421875 -1 3 C-0.67 2.01 -0.34 1.02 0 0 Z " fill="#858596" transform="translate(122,237)"/>
<path d="M0 0 C3.05740483 2.75166435 4.84750161 5.01864192 6 9 C5.67 9.66 5.34 10.32 5 11 C4.34 11 3.68 11 3 11 C1.67578125 9.3203125 1.67578125 9.3203125 0.3125 7.125 C-0.14511719 6.40570313 -0.60273438 5.68640625 -1.07421875 4.9453125 C-1.37972656 4.30335938 -1.68523437 3.66140625 -2 3 C-1 1 -1 1 0 0 Z " fill="#808092" transform="translate(339,237)"/>
<path d="M0 0 C1.65 0 3.3 0 5 0 C5.33 1.65 5.66 3.3 6 5 C4.35 5.33 2.7 5.66 1 6 C-0.0625 4.125 -0.0625 4.125 -1 2 C-0.67 1.34 -0.34 0.68 0 0 Z " fill="#F0F0F2" transform="translate(115,229)"/>
<path d="M0 0 C5.27388024 -0.50227431 7.91015695 0.67105798 12 4 C12.33 4.99 12.66 5.98 13 7 C8.97372024 7 7.26696313 5.26687238 4 3 C2.6808418 2.30570621 1.35350594 1.62469505 0 1 C0 0.67 0 0.34 0 0 Z " fill="#C5C5CD" transform="translate(125,201)"/>
<path d="M0 0 C0.99 0.33 1.98 0.66 3 1 C1.66511872 4.59391114 0.03977277 7.75490696 -2 11 C-2.66 10.67 -3.32 10.34 -4 10 C-4 5.28093812 -2.71245796 3.72962969 0 0 Z " fill="#9291A1" transform="translate(328,236)"/>
<path d="M0 0 C0 0.66 0 1.32 0 2 C-3.63 3.32 -7.26 4.64 -11 6 C-11.33 5.01 -11.66 4.02 -12 3 C-10.75823305 2.29773859 -9.50614401 1.61370891 -8.25 0.9375 C-7.20585938 0.36322266 -7.20585938 0.36322266 -6.140625 -0.22265625 C-3.63859372 -1.1312406 -2.4667645 -0.88336837 0 0 Z " fill="#7F7E91" transform="translate(135,225)"/>
<path d="M0 0 C1.46015291 0.28241641 2.91809793 0.57626614 4.375 0.875 C5.18710937 1.03742188 5.99921875 1.19984375 6.8359375 1.3671875 C9 2 9 2 11 4 C10.67 4.66 10.34 5.32 10 6 C6.44219804 5.39009109 3.3171411 4.4216319 0 3 C0 2.01 0 1.02 0 0 Z " fill="#9C9CAA" transform="translate(317,224)"/>
<path d="M0 0 C1.64574566 -0.02688151 3.29161413 -0.04634123 4.9375 -0.0625 C5.85402344 -0.07410156 6.77054688 -0.08570313 7.71484375 -0.09765625 C10 0 10 0 11 1 C11.07179964 2.51928038 11.08392007 4.04167482 11.0625 5.5625 C11.05347656 6.38878906 11.04445312 7.21507812 11.03515625 8.06640625 C11.02355469 8.70449219 11.01195312 9.34257812 11 10 C10.34 9.01 9.68 8.02 9 7 C6.80545319 6.42006301 6.80545319 6.42006301 4.375 6.3125 C3.55773437 6.24675781 2.74046875 6.18101562 1.8984375 6.11328125 C1.27195313 6.07589844 0.64546875 6.03851563 0 6 C0 5.67 0 5.34 0 5 C4.455 4.505 4.455 4.505 9 4 C9 3.34 9 2.68 9 2 C6.03 1.67 3.06 1.34 0 1 C0 0.67 0 0.34 0 0 Z " fill="#0B0A2D" transform="translate(208,314)"/>
<path d="M0 0 C0.99 0 1.98 0 3 0 C1.79157144 4.43090471 0.48331435 6.98112756 -3 10 C-3.66 9.34 -4.32 8.68 -5 8 C-4.24266726 6.6589523 -3.46867264 5.32730219 -2.6875 4 C-2.25824219 3.2575 -1.82898438 2.515 -1.38671875 1.75 C-0.70029297 0.88375 -0.70029297 0.88375 0 0 Z " fill="#848395" transform="translate(112,237)"/>
<path d="M0 0 C0.33 0 0.66 0 1 0 C1.33 4.95 1.66 9.9 2 15 C1.34 15 0.68 15 0 15 C-1.03876383 11.88370851 -1.13361625 9.6405571 -1.125 6.375 C-1.12757813 5.39273438 -1.13015625 4.41046875 -1.1328125 3.3984375 C-1 1 -1 1 0 0 Z " fill="#FBFBFB" transform="translate(313,225)"/>
<path d="M0 0 C4.82755081 0.43886826 8.79671928 2.75755495 13 5 C12.67 5.99 12.34 6.98 12 8 C10.39459341 7.21085079 8.79071984 6.41858235 7.1875 5.625 C6.29417969 5.18414062 5.40085937 4.74328125 4.48046875 4.2890625 C2 3 2 3 -1 1 C-0.67 0.67 -0.34 0.34 0 0 Z " fill="#E5E5E8" transform="translate(380,199)"/>
<path d="M0 0 C3.27310883 0.20892184 5.32433057 0.43694214 7.875 2.5625 C8.431875 3.2740625 8.431875 3.2740625 9 4 C6.83032311 4.95465783 5.43671207 5.14401212 3.17578125 4.3984375 C1.4315257 3.64129615 -0.28627131 2.82390802 -2 2 C-1.34 1.34 -0.68 0.68 0 0 Z " fill="#9190A0" transform="translate(104,225)"/>
<path d="M0 0 C2.49505962 2.49505962 2.35948376 3.67328888 2.625 7.125 C2.69976562 8.03507813 2.77453125 8.94515625 2.8515625 9.8828125 C2.92503906 10.93082031 2.92503906 10.93082031 3 12 C2.67 12 2.34 12 2 12 C1.67 13.98 1.34 15.96 1 18 C0.67 18 0.34 18 0 18 C0 12.06 0 6.12 0 0 Z " fill="#878798" transform="translate(365,219)"/>
<path d="M0 0 C2.97 0 5.94 0 9 0 C8.67 0.99 8.34 1.98 8 3 C5.36 3 2.72 3 0 3 C0 2.01 0 1.02 0 0 Z " fill="#E2E2E6" transform="translate(209,316)"/>
<path d="M0 0 C0.33 0.66 0.66 1.32 1 2 C0.22265625 3.9453125 0.22265625 3.9453125 -0.9375 6.125 C-1.31777344 6.84945312 -1.69804687 7.57390625 -2.08984375 8.3203125 C-2.39019531 8.87460938 -2.69054687 9.42890625 -3 10 C-3.99 10 -4.98 10 -6 10 C-4.79157144 5.56909529 -3.48331435 3.01887244 0 0 Z " fill="#EAE9EC" transform="translate(318,216)"/>
<path d="M0 0 C0.99 0.33 1.98 0.66 3 1 C1.68 1.33 0.36 1.66 -1 2 C-1 2.66 -1 3.32 -1 4 C-2.75 5.6875 -2.75 5.6875 -5 7 C-7.140625 6.58203125 -7.140625 6.58203125 -9 6 C-7.57140593 4.96674014 -6.13177617 3.94872366 -4.6875 2.9375 C-3.88699219 2.36902344 -3.08648437 1.80054688 -2.26171875 1.21484375 C-1.51535156 0.81394531 -0.76898438 0.41304687 0 0 Z " fill="#8E8D9E" transform="translate(105,200)"/>
<path d="M0 0 C-0.99 0.495 -0.99 0.495 -2 1 C-2 1.66 -2 2.32 -2 3 C-5.96 2.67 -9.92 2.34 -14 2 C-14 1.67 -14 1.34 -14 1 C-9.32798795 -0.20568053 -4.78503708 -0.09382426 0 0 Z " fill="#292847" transform="translate(238,157)"/>
<path d="M0 0 C0.66 0 1.32 0 2 0 C2 3.3 2 6.6 2 10 C0.68 9.34 -0.64 8.68 -2 8 C-1.34 7.67 -0.68 7.34 0 7 C0 4.69 0 2.38 0 0 Z " fill="#2D2C4A" transform="translate(324,314)"/>
<path d="M0 0 C1.62580966 0.11398665 3.25067157 0.24155659 4.875 0.375 C5.77992188 0.44460937 6.68484375 0.51421875 7.6171875 0.5859375 C10 1 10 1 12 3 C10.37581255 3.08090971 8.75048255 3.13914995 7.125 3.1875 C5.76761719 3.23970703 5.76761719 3.23970703 4.3828125 3.29296875 C3.20332031 3.14794922 3.20332031 3.14794922 2 3 C1.34 2.01 0.68 1.02 0 0 Z " fill="#EFEFF1" transform="translate(386,210)"/>
<path d="M0 0 C1.9375 0.8125 1.9375 0.8125 4 2 C4.33 2.99 4.66 3.98 5 5 C2.69 5 0.38 5 -2 5 C-1.34 3.35 -0.68 1.7 0 0 Z " fill="#858495" transform="translate(234,317)"/>
<path d="M0 0 C1.9375 0.8125 1.9375 0.8125 4 2 C4.33 2.99 4.66 3.98 5 5 C2.69 5 0.38 5 -2 5 C-1.34 3.35 -0.68 1.7 0 0 Z " fill="#858495" transform="translate(195,317)"/>
<path d="M0 0 C-0.33 0.99 -0.66 1.98 -1 3 C-2.98 3.33 -4.96 3.66 -7 4 C-7 3.01 -7 2.02 -7 1 C-4.53721199 -0.231394 -2.7204945 -0.07159196 0 0 Z " fill="#D8D8DE" transform="translate(101,180)"/>
<path d="M0 0 C3.59905908 0.55550695 4.99909799 1.74887248 7.25 4.5625 C8.03117187 5.52349609 8.03117187 5.52349609 8.828125 6.50390625 C9.21484375 6.99761719 9.6015625 7.49132812 10 8 C6.44687712 6.26978364 3.20269206 4.32923059 0 2 C0 1.34 0 0.68 0 0 Z " fill="#1E1D3D" transform="translate(398,206)"/>
</svg>
